<svg width="1250" height="252" viewBox="0 0 1250 252" fill="none" xmlns="http://www.w3.org/2000/svg">
<path d="M74.4904 124.639C74.2118 129.492 75.8711 134.257 79.1037 137.887C82.3363 141.518 86.8779 143.716 91.7304 143.999H92.7304C96.3042 143.995 99.7987 142.945 102.782 140.978C105.766 139.011 108.109 136.214 109.521 132.931C110.933 129.648 111.353 126.023 110.729 122.504C110.105 118.985 108.464 115.726 106.009 113.129C103.555 110.532 100.393 108.71 96.9146 107.889C93.4364 107.068 89.7939 107.283 86.4367 108.508C83.0794 109.734 80.1544 111.915 78.0226 114.783C75.8908 117.652 74.6455 121.081 74.4404 124.649L74.4904 124.639Z" fill="white"/>
<path d="M6.25003 119.999C5.08335 119.934 3.92349 120.216 2.91705 120.81C1.9106 121.404 1.10273 122.282 0.595533 123.335C0.0883369 124.388 -0.0954197 125.567 0.0674854 126.724C0.23039 127.881 0.732646 128.964 1.51078 129.836C2.28891 130.708 3.30799 131.329 4.43924 131.622C5.57048 131.915 6.76311 131.865 7.86641 131.48C8.96971 131.096 9.93415 130.392 10.6379 129.459C11.3416 128.527 11.753 127.406 11.82 126.239C11.866 125.464 11.7581 124.686 11.5027 123.952C11.2474 123.218 10.8495 122.542 10.3319 121.962C9.81429 121.382 9.18724 120.91 8.48675 120.573C7.78626 120.237 7.02613 120.042 6.25003 119.999Z" fill="white"/>
<path d="M73.3304 18.4294C74.3695 17.8958 75.2275 17.0667 75.7964 16.0465C76.3653 15.0263 76.6198 13.8607 76.5276 12.6962C76.4355 11.5318 76.0009 10.4206 75.2786 9.50257C74.5564 8.58456 73.5786 7.90074 72.4686 7.53719C71.3585 7.17364 70.1657 7.14661 69.0403 7.45951C67.9149 7.77241 66.9072 8.41124 66.1441 9.29559C65.3809 10.1799 64.8965 11.2703 64.7517 12.4294C64.6069 13.5885 64.8083 14.7645 65.3304 15.8094C65.6814 16.5088 66.1673 17.1318 66.7602 17.6425C67.3531 18.1533 68.0412 18.5416 68.7849 18.7851C69.5285 19.0287 70.313 19.1226 71.0932 19.0616C71.8733 19.0005 72.6337 18.7857 73.3304 18.4294Z" fill="white"/>
<path d="M91.9 50.8093C93.5138 49.9953 94.8499 48.7211 95.7396 47.1478C96.6293 45.5744 97.0325 43.7727 96.8983 41.9702C96.7641 40.1678 96.0986 38.4456 94.9857 37.0213C93.8729 35.5971 92.3628 34.5348 90.6463 33.9687C88.9298 33.4026 87.084 33.3581 85.3422 33.8409C83.6005 34.3236 82.0409 35.312 80.8608 36.681C79.6807 38.0499 78.9329 39.7381 78.712 41.532C78.4912 43.3259 78.8072 45.145 79.62 46.7593C80.1601 47.8319 80.9062 48.7875 81.8157 49.5716C82.7253 50.3556 83.7804 50.9528 84.9208 51.3289C86.0612 51.705 87.2646 51.8527 88.4621 51.7636C89.6597 51.6744 90.8279 51.3502 91.9 50.8093Z" fill="white"/>
<path d="M29.4103 73.0793C30.655 73.8979 32.1145 74.3288 33.6042 74.3176C35.0939 74.3064 36.5468 73.8536 37.7791 73.0164C39.0114 72.1792 39.9676 70.9954 40.5269 69.6146C41.0861 68.2338 41.2232 66.7181 40.9209 65.2594C40.6185 63.8007 39.8902 62.4644 38.8281 61.4197C37.7661 60.375 36.418 59.6688 34.9545 59.3904C33.491 59.1121 31.9778 59.2741 30.6064 59.856C29.235 60.4379 28.067 61.4135 27.2503 62.6593C26.1563 64.328 25.7694 66.3625 26.1744 68.3162C26.5793 70.2699 27.7432 71.9831 29.4103 73.0793Z" fill="white"/>
<path d="M40.5397 116.67C38.7353 116.568 36.9411 117.003 35.3841 117.921C33.8271 118.839 32.5771 120.197 31.792 121.825C31.007 123.453 30.7222 125.277 30.9737 127.067C31.2251 128.857 32.0015 130.532 33.2048 131.88C34.408 133.229 35.984 134.19 37.7336 134.643C39.4832 135.097 41.3279 135.021 43.0344 134.426C44.7409 133.83 46.2327 132.743 47.3212 131.3C48.4097 129.857 49.046 128.124 49.1497 126.32C49.2862 123.899 48.4561 121.522 46.8417 119.713C45.2273 117.904 42.9606 116.809 40.5397 116.67Z" fill="white"/>
<path d="M30.4099 178.12C29.081 178.792 27.981 179.842 27.249 181.139C26.517 182.436 26.1859 183.92 26.2976 185.405C26.4092 186.89 26.9585 188.308 27.8761 189.481C28.7937 190.654 30.0384 191.528 31.4528 191.993C32.8672 192.459 34.3878 192.494 35.8224 192.096C37.2571 191.697 38.5413 190.882 39.5128 189.754C40.4843 188.625 41.0995 187.234 41.2805 185.756C41.4615 184.278 41.2003 182.78 40.5299 181.45C40.0844 180.567 39.4691 179.78 38.7193 179.134C37.9695 178.489 37.0998 177.997 36.16 177.688C35.2201 177.379 34.2286 177.258 33.2419 177.332C32.2553 177.406 31.2929 177.674 30.4099 178.12Z" fill="white"/>
<path d="M65.9402 97.7801C67.72 98.9465 69.8057 99.559 71.9337 99.5401C74.0616 99.5212 76.1361 98.8717 77.8949 97.6739C79.6538 96.476 81.0179 94.7835 81.8149 92.8104C82.6119 90.8373 82.8059 88.6722 82.3725 86.5888C81.939 84.5054 80.8976 82.5973 79.3797 81.1058C77.8619 79.6143 75.9359 78.6063 73.8453 78.2094C71.7546 77.8124 69.5932 78.0443 67.6343 78.8757C65.6755 79.707 64.0071 81.1006 62.8402 82.8801C62.0639 84.0615 61.5282 85.3844 61.2638 86.7732C60.9995 88.1619 61.0116 89.5891 61.2996 90.9731C61.5875 92.3571 62.1456 93.6707 62.9419 94.8388C63.7382 96.0068 64.7571 97.0063 65.9402 97.7801Z" fill="white"/>
<path d="M178.66 50.0901C180.175 51.0786 181.95 51.5956 183.759 51.5758C185.568 51.556 187.331 51.0003 188.824 49.9788C190.318 48.9574 191.475 47.5161 192.149 45.8372C192.824 44.1583 192.985 42.3171 192.614 40.5464C192.242 38.7756 191.353 37.1549 190.061 35.889C188.768 34.623 187.129 33.7688 185.351 33.4342C183.573 33.0996 181.735 33.2997 180.071 34.0091C178.406 34.7186 176.99 35.9056 176 37.4201C175.341 38.4261 174.887 39.5523 174.663 40.7341C174.44 41.916 174.453 43.1302 174.7 44.3072C174.947 45.4843 175.424 46.601 176.104 47.5933C176.783 48.5857 177.652 49.4341 178.66 50.0901Z" fill="white"/>
<path d="M197.42 17.8096C198.399 18.4517 199.547 18.7888 200.718 18.7782C201.89 18.7677 203.031 18.41 203.999 17.7505C204.967 17.0909 205.717 16.1591 206.155 15.0729C206.593 13.9867 206.7 12.795 206.46 11.6485C206.221 10.5021 205.647 9.45234 204.811 8.63221C203.975 7.81208 202.914 7.25838 201.763 7.04117C200.612 6.82397 199.423 6.95302 198.345 7.41199C197.268 7.87097 196.351 8.63924 195.71 9.61961C194.851 10.9327 194.549 12.5328 194.87 14.0684C195.191 15.604 196.108 16.9496 197.42 17.8096Z" fill="white"/>
<path d="M180.1 107.22C177.7 107.082 175.297 107.418 173.027 108.209C170.757 109 168.665 110.23 166.87 111.83C163.246 115.06 161.054 119.598 160.775 124.445C160.497 129.291 162.155 134.05 165.385 137.675C168.616 141.299 173.153 143.491 178 143.77C178.35 143.77 178.71 143.77 179.06 143.77C182.591 143.768 186.046 142.745 189.008 140.824C191.971 138.903 194.314 136.166 195.756 132.943C197.198 129.72 197.676 126.148 197.134 122.659C196.592 119.171 195.052 115.913 192.7 113.28C191.108 111.484 189.173 110.023 187.01 108.982C184.846 107.942 182.498 107.343 180.1 107.22Z" fill="white"/>
<path d="M97.9105 96.5102C99.4297 99.5453 101.766 102.096 104.656 103.875C107.547 105.654 110.876 106.591 114.27 106.58C117.4 106.581 120.477 105.78 123.208 104.253C125.94 102.726 128.234 100.525 129.873 97.8592C131.512 95.1935 132.44 92.1523 132.569 89.0258C132.698 85.8994 132.024 82.792 130.61 80.0002C129.081 76.979 126.74 74.4433 123.851 72.6771C120.961 70.9109 117.637 69.984 114.25 70.0002C111.131 70.0055 108.065 70.8078 105.342 72.3308C102.62 73.8539 100.332 76.0472 98.6947 78.7028C97.0579 81.3584 96.1267 84.3881 95.9894 87.5046C95.8522 90.6211 96.5134 93.721 97.9105 96.5102Z" fill="white"/>
<path d="M241.41 73.0601C242.739 72.3894 243.839 71.3396 244.572 70.0436C245.305 68.7476 245.637 67.2635 245.527 65.7788C245.416 64.294 244.868 62.8754 243.951 61.7021C243.035 60.5289 241.791 59.6536 240.377 59.187C238.963 58.7204 237.443 58.6834 236.008 59.0806C234.573 59.4778 233.289 60.2915 232.316 61.4187C231.343 62.546 230.727 63.9363 230.544 65.4138C230.362 66.8914 230.621 68.39 231.29 69.7201C232.19 71.5042 233.761 72.858 235.659 73.4843C237.556 74.1106 239.625 73.958 241.41 73.0601Z" fill="white"/>
<path d="M195 78.8898C193.099 79.847 191.525 81.3464 190.477 83.1983C189.428 85.0502 188.952 87.1714 189.109 89.2938C189.266 91.4161 190.049 93.4442 191.359 95.1216C192.669 96.799 194.446 98.0504 196.467 98.7175C198.488 99.3845 200.661 99.4374 202.712 98.8693C204.763 98.3013 206.6 97.1378 207.989 95.5261C209.379 93.9143 210.259 91.9267 210.519 89.8145C210.779 87.7023 210.407 85.5605 209.45 83.6598C208.815 82.3968 207.938 81.2715 206.868 80.348C205.798 79.4246 204.556 78.7212 203.214 78.2781C201.872 77.8351 200.456 77.6611 199.046 77.766C197.637 77.871 196.262 78.2528 195 78.8898Z" fill="white"/>
<path d="M135.22 15.0498C136.707 15.1345 138.186 14.7762 139.469 14.0203C140.753 13.2644 141.783 12.1448 142.431 10.8031C143.078 9.46146 143.312 7.95803 143.105 6.48301C142.897 5.00798 142.257 3.62763 141.265 2.51657C140.273 1.40551 138.973 0.61366 137.531 0.241182C136.089 -0.131296 134.569 -0.0676647 133.163 0.424028C131.756 0.91572 130.528 1.81338 129.632 3.00346C128.736 4.19354 128.214 5.62257 128.13 7.10977C128.018 9.10268 128.702 11.0585 130.032 12.5473C131.361 14.0362 133.227 14.9363 135.22 15.0498Z" fill="white"/>
<path d="M135.14 62.4397C137.264 62.5587 139.376 62.0455 141.208 60.9647C143.041 59.8839 144.512 58.2841 145.435 56.3675C146.359 54.4509 146.693 52.3035 146.397 50.1968C146.1 48.0901 145.186 46.1185 143.769 44.5313C142.352 42.9441 140.497 41.8126 138.437 41.2796C136.378 40.7467 134.206 40.8362 132.197 41.5371C130.189 42.2379 128.433 43.5185 127.152 45.217C125.87 46.9155 125.122 48.9556 125 51.0797C124.839 53.9306 125.816 56.7287 127.718 58.859C129.619 60.9892 132.289 62.2772 135.14 62.4397Z" fill="white"/>
<path d="M76.8404 172.28C78.7408 171.322 80.3144 169.822 81.3622 167.969C82.4099 166.117 82.8847 163.995 82.7266 161.873C82.5684 159.75 81.7844 157.722 80.4736 156.045C79.1629 154.369 77.3843 153.118 75.3629 152.452C73.3414 151.786 71.1679 151.735 69.1172 152.304C67.0664 152.874 65.2307 154.039 63.8421 155.652C62.4535 157.265 61.5743 159.253 61.3159 161.366C61.0575 163.478 61.4314 165.62 62.3904 167.52C63.6758 170.067 65.9201 171.999 68.6298 172.892C71.3395 173.785 74.2928 173.564 76.8404 172.28Z" fill="white"/>
<path d="M142.09 78.1401C139.859 81.5458 138.826 85.5984 139.157 89.6567C139.488 93.7149 141.163 97.5469 143.916 100.546C146.67 103.546 150.345 105.541 154.361 106.216C158.376 106.892 162.502 106.209 166.085 104.276C169.669 102.343 172.505 99.2697 174.146 95.5431C175.786 91.8165 176.137 87.6492 175.143 83.7008C174.148 79.7524 171.865 76.2484 168.655 73.7434C165.446 71.2383 161.492 69.8753 157.42 69.8701C154.379 69.868 151.386 70.6229 148.709 72.0666C146.033 73.5104 143.758 75.5976 142.09 78.1401Z" fill="white"/>
<path d="M173.91 154.669C172.444 151.762 170.229 149.298 167.493 147.533C164.757 145.767 161.599 144.764 158.346 144.626C155.093 144.488 151.862 145.22 148.986 146.748C146.11 148.275 143.694 150.542 141.987 153.315C140.28 156.088 139.344 159.266 139.275 162.521C139.206 165.777 140.006 168.992 141.594 171.834C143.183 174.677 145.5 177.045 148.309 178.693C151.117 180.341 154.314 181.209 157.57 181.209C160.435 181.19 163.256 180.505 165.81 179.209C170.132 177.022 173.41 173.211 174.928 168.612C176.446 164.013 176.08 158.999 173.91 154.669Z" fill="white"/>
<path d="M205.891 153.39C204.111 152.222 202.026 151.608 199.898 151.625C197.77 151.643 195.695 152.291 193.935 153.487C192.175 154.684 190.81 156.376 190.011 158.348C189.213 160.321 189.018 162.486 189.45 164.57C189.882 166.654 190.922 168.563 192.439 170.055C193.956 171.548 195.882 172.557 197.972 172.955C200.063 173.353 202.225 173.122 204.184 172.292C206.143 171.462 207.813 170.069 208.98 168.29C210.541 165.903 211.092 162.994 210.513 160.202C209.934 157.409 208.272 154.96 205.891 153.39Z" fill="white"/>
<path d="M240.93 125.9C241.031 124.096 240.596 122.301 239.678 120.744C238.761 119.187 237.402 117.937 235.774 117.152C234.146 116.367 232.322 116.083 230.532 116.334C228.743 116.585 227.068 117.362 225.719 118.565C224.371 119.768 223.409 121.344 222.956 123.094C222.503 124.844 222.579 126.688 223.174 128.395C223.769 130.101 224.857 131.593 226.299 132.682C227.742 133.77 229.475 134.406 231.28 134.51C233.701 134.647 236.077 133.816 237.886 132.202C239.696 130.588 240.79 128.321 240.93 125.9Z" fill="white"/>
<path d="M266.25 119.39C265.082 119.322 263.919 119.603 262.91 120.197C261.9 120.79 261.09 121.67 260.58 122.724C260.071 123.778 259.885 124.96 260.047 126.119C260.209 127.279 260.712 128.364 261.491 129.239C262.27 130.113 263.29 130.736 264.424 131.03C265.557 131.324 266.752 131.276 267.858 130.89C268.964 130.505 269.93 129.801 270.636 128.866C271.341 127.931 271.753 126.809 271.82 125.64C271.908 124.073 271.371 122.535 270.327 121.364C269.283 120.192 267.817 119.482 266.25 119.39Z" fill="white"/>
<path d="M242.41 178.09C241.164 177.274 239.704 176.846 238.216 176.86C236.727 176.873 235.275 177.328 234.044 178.166C232.814 179.005 231.859 180.189 231.302 181.57C230.744 182.95 230.608 184.465 230.912 185.923C231.215 187.381 231.944 188.716 233.006 189.76C234.068 190.804 235.415 191.509 236.878 191.787C238.341 192.065 239.854 191.903 241.224 191.322C242.595 190.74 243.763 189.765 244.58 188.52C245.122 187.693 245.497 186.767 245.682 185.795C245.866 184.823 245.858 183.824 245.656 182.856C245.455 181.887 245.064 180.968 244.507 180.15C243.95 179.332 243.237 178.632 242.41 178.09Z" fill="white"/>
<path d="M74.41 233.36C73.4312 232.718 72.2839 232.38 71.1132 232.39C69.9425 232.4 68.801 232.756 67.8329 233.414C66.8649 234.073 66.1138 235.004 65.6746 236.089C65.2354 237.174 65.1278 238.365 65.3655 239.511C65.6031 240.658 66.1753 241.708 67.0098 242.529C67.8442 243.35 68.9034 243.906 70.0534 244.125C71.2034 244.344 72.3926 244.218 73.4707 243.761C74.5487 243.304 75.4672 242.539 76.11 241.56C76.537 240.91 76.8318 240.182 76.9774 239.418C77.1231 238.655 77.1168 237.869 76.9589 237.108C76.8011 236.346 76.4947 235.623 76.0573 234.98C75.62 234.337 75.0602 233.787 74.41 233.36Z" fill="white"/>
<path d="M198.49 232.74C197.444 233.267 196.578 234.092 196.002 235.111C195.425 236.13 195.164 237.297 195.251 238.465C195.338 239.633 195.769 240.749 196.49 241.671C197.211 242.594 198.189 243.282 199.301 243.649C200.414 244.015 201.609 244.043 202.738 243.73C203.866 243.417 204.876 242.776 205.64 241.889C206.404 241.002 206.888 239.908 207.03 238.746C207.173 237.583 206.967 236.405 206.44 235.36C206.091 234.665 205.608 234.046 205.019 233.538C204.43 233.03 203.747 232.643 203.009 232.4C202.27 232.156 201.491 232.061 200.715 232.119C199.94 232.178 199.184 232.388 198.49 232.74Z" fill="white"/>
<path d="M129.73 173C131.961 169.594 132.994 165.541 132.662 161.482C132.331 157.424 130.656 153.591 127.902 150.592C125.147 147.593 121.471 145.598 117.455 144.923C113.44 144.248 109.313 144.932 105.73 146.866C102.147 148.801 99.3109 151.875 97.6716 155.603C96.0322 159.33 95.6829 163.498 96.679 167.446C97.6751 171.395 99.9598 174.898 103.171 177.402C106.383 179.906 110.337 181.267 114.41 181.27C117.451 181.28 120.446 180.529 123.122 179.084C125.798 177.64 128.07 175.548 129.73 173Z" fill="white"/>
<path d="M93.1603 201.09C91.6479 200.101 89.876 199.582 88.0688 199.599C86.2615 199.616 84.5 200.169 83.0069 201.188C81.5137 202.206 80.356 203.644 79.68 205.32C79.004 206.996 78.8401 208.835 79.2091 210.604C79.578 212.374 80.4632 213.994 81.7528 215.26C83.0424 216.526 84.6784 217.382 86.4541 217.719C88.2298 218.055 90.0655 217.858 91.729 217.152C93.3926 216.445 94.8094 215.261 95.8003 213.75C97.1276 211.721 97.5951 209.247 97.1001 206.874C96.6051 204.5 95.1881 202.42 93.1603 201.09Z" fill="white"/>
<path d="M135.83 236.12C134.343 236.035 132.865 236.393 131.581 237.149C130.298 237.904 129.268 239.023 128.621 240.364C127.973 241.705 127.738 243.208 127.945 244.683C128.152 246.158 128.791 247.538 129.782 248.649C130.773 249.761 132.072 250.553 133.513 250.927C134.955 251.3 136.475 251.238 137.881 250.748C139.287 250.258 140.516 249.362 141.413 248.173C142.31 246.984 142.834 245.556 142.92 244.07C142.976 243.082 142.838 242.093 142.512 241.159C142.187 240.225 141.68 239.364 141.022 238.626C140.363 237.887 139.566 237.286 138.675 236.856C137.784 236.426 136.817 236.176 135.83 236.12Z" fill="white"/>
<path d="M135.91 188.74C133.784 188.61 131.667 189.115 129.828 190.19C127.989 191.264 126.511 192.861 125.58 194.776C124.648 196.692 124.307 198.841 124.598 200.951C124.889 203.061 125.8 205.037 127.215 206.629C128.63 208.221 130.486 209.357 132.548 209.893C134.609 210.429 136.783 210.342 138.795 209.642C140.806 208.941 142.565 207.66 143.847 205.959C145.13 204.259 145.879 202.216 146 200.09C146.164 197.247 145.194 194.456 143.302 192.328C141.41 190.2 138.752 188.91 135.91 188.74Z" fill="white"/>
<path d="M179.92 200.359C178.305 201.179 176.97 202.459 176.083 204.037C175.196 205.616 174.798 207.422 174.938 209.227C175.078 211.032 175.75 212.755 176.87 214.178C177.99 215.601 179.507 216.66 181.228 217.22C182.95 217.78 184.799 217.817 186.542 217.326C188.285 216.835 189.843 215.838 191.018 214.461C192.194 213.084 192.935 211.389 193.147 209.591C193.359 207.793 193.033 205.972 192.21 204.359C191.667 203.289 190.917 202.336 190.005 201.556C189.093 200.775 188.036 200.182 186.895 199.811C185.753 199.439 184.549 199.296 183.353 199.39C182.156 199.485 180.989 199.814 179.92 200.359Z" fill="white"/>
<path d="M381.86 82.3499C399.58 82.3499 411.99 92.0899 411.99 110.17H435.2C435.2 78.4499 411.81 63.1699 381.51 63.1699C344.29 63.1699 322.67 83.3799 322.67 126.09C322.67 169.86 344.29 189 381.51 189C412.17 189 435.2 174.12 435.2 142.39H412.87C412.87 160.11 400.64 169.86 381.87 169.86C357.23 169.86 345.87 156.21 345.87 127.86V124.32C345.89 96.5199 357.4 82.3499 381.86 82.3499Z" fill="white"/>
<path d="M496.57 65.3301L449.25 186.91H472.65L482.39 160.5H538L548 186.91H572.46L525.11 65.3301H496.57ZM489.48 141.33L501.89 108C504.37 101.45 508.8 87.2701 509.69 84.7901H510.57C511.46 87.2701 515.89 101.62 518.37 108L530.77 141.32L489.48 141.33Z" fill="white"/>
<path d="M699 102.19C699 79.6901 686.06 65.3301 659.3 65.3301H595.14V186.91H617.83V139.91H655.57L678.57 186.91H703.38L677.38 136.4C691.73 130.73 699 118.68 699 102.19ZM657.52 120.8H617.83V84.6501H657.52C669.75 84.6501 676.13 91.2101 676.13 102.19C676.13 113.72 669.22 120.8 657.52 120.8Z" fill="white"/>
<path d="M778.58 65.3301H730V186.91H778.56C815.24 186.91 837.56 167.77 837.56 126.12C837.56 84.4701 815.26 65.3301 778.58 65.3301ZM814.38 127.89C814.2 154.48 801.62 167.59 778.58 167.59H752.71V84.6501H778.58C801.58 84.6501 814.38 97.7701 814.38 124.35V127.89Z" fill="white"/>
<path d="M897 65.3301L849.66 186.91H873.05L882.8 160.5H938.45L948.37 186.91H972.83L925.51 65.3301H897ZM889.91 141.33L902.3 108C904.78 101.45 909.21 87.2701 910.1 84.7901H911C911.88 87.2701 916.32 101.62 918.8 108L931.2 141.32L889.91 141.33Z" fill="white"/>
<path d="M1076.54 137.64C1076.54 139.94 1076.89 146.14 1076.89 147.21L1076.01 147.56C1075.48 146.86 1071.93 140.65 1070.01 137.82L1017.2 65.3301H995.55V186.91H1017.35V114.07C1017.35 111.07 1016.99 105.21 1016.99 104.32L1017.88 103.79C1018.41 104.5 1021.07 109.64 1023.88 113.72L1077.05 186.91H1098.31V65.3301H1076.52V137.64H1076.54Z" fill="white"/>
<path d="M1188.68 63.21C1150.58 63.21 1127.54 83.41 1127.54 126.12C1127.54 168.83 1150.54 189.03 1188.68 189.03C1226.82 189.03 1250 168.83 1250 126.12C1250 83.41 1226.78 63.21 1188.68 63.21ZM1226.78 128.07C1226.78 155.89 1213.49 169.89 1188.68 169.89C1164.05 169.89 1150.76 155.89 1150.76 128.07V124.35C1150.76 96.52 1164.23 82.35 1188.68 82.35C1213.32 82.35 1226.78 96.52 1226.78 124.35V128.07Z" fill="white"/>
</svg>
