<svg height="19.929" viewBox="0 0 25.71 19.929" width="25.71" xmlns="http://www.w3.org/2000/svg"><path d="m18.461 4.26a13.013 13.013 0 0 0 -.68 1.412 18.813 18.813 0 0 0 -5.877 0 13.012 13.012 0 0 0 -.68-1.412 20.532 20.532 0 0 0 -5.3 1.668 22.239 22.239 0 0 0 -3.85 14.872 21.3 21.3 0 0 0 6.506 3.325 16.541 16.541 0 0 0 1.42-2.233 12.384 12.384 0 0 1 -2.19-1.065 4.351 4.351 0 0 0 .539-.423 14.963 14.963 0 0 0 12.987 0q.269.231.539.423a13.911 13.911 0 0 1 -2.194 1.073 15.925 15.925 0 0 0 1.386 2.284 21.1 21.1 0 0 0 6.493-3.324 22.1 22.1 0 0 0 -3.85-14.868 20.648 20.648 0 0 0 -5.249-1.732zm-7.879 13.54a2.49 2.49 0 0 1 -2.31-2.567 2.477 2.477 0 0 1 2.31-2.567 2.477 2.477 0 0 1 2.31 2.567 2.477 2.477 0 0 1 -2.31 2.567zm8.521 0a2.49 2.49 0 0 1 -2.31-2.567 2.477 2.477 0 0 1 2.31-2.567 2.464 2.464 0 0 1 2.31 2.567 2.464 2.464 0 0 1 -2.313 2.567z" fill="#fff" transform="translate(-1.964 -4.26)"/></svg>