<svg height="46" viewBox="0 0 46 46" width="46" xmlns="http://www.w3.org/2000/svg" xmlns:xlink="http://www.w3.org/1999/xlink"><filter id="a"><feOffset/><feGaussianBlur result="blur" stdDeviation="5.5"/><feFlood flood-color="#c4c7ff" result="color"/><feComposite in="SourceGraphic" in2="blur" operator="out"/><feComposite in="color" operator="in"/><feComposite in2="SourceGraphic" operator="in"/></filter><path d="m43.889 15.778h-7.667v-7.667a5.116 5.116 0 0 0 -5.111-5.111h-23a5.116 5.116 0 0 0 -5.111 5.111v23a5.116 5.116 0 0 0 5.111 5.111h7.667v7.667a5.116 5.116 0 0 0 5.111 5.111h23a5.116 5.116 0 0 0 5.111-5.111v-23a5.116 5.116 0 0 0 -5.111-5.111zm-10.222 17.889h-15.334v-15.334h15.334z" fill="#737aef" transform="translate(-3 -3)"/><g filter="url(#a)"><path d="m43.889 15.778h-7.667v-7.667a5.116 5.116 0 0 0 -5.111-5.111h-23a5.116 5.116 0 0 0 -5.111 5.111v23a5.116 5.116 0 0 0 5.111 5.111h7.667v7.667a5.116 5.116 0 0 0 5.111 5.111h23a5.116 5.116 0 0 0 5.111-5.111v-23a5.116 5.116 0 0 0 -5.111-5.111zm-10.222 17.889h-15.334v-15.334h15.334z" fill="#fff" transform="translate(-3 -3)"/></g></svg>