<svg width="191" height="54" viewBox="0 0 191 54" fill="none" xmlns="http://www.w3.org/2000/svg">
<path d="M75.0663 21.855H73.9053V31.534H75.0663V21.855Z" fill="white"/>
<path d="M121.817 16.1689H120.657V37.2189H121.817V16.1689Z" fill="white"/>
<path d="M84.7455 29.736L84.7865 29.722C84.7235 29.501 84.6885 29.28 84.6885 29.058V21.855H85.8505V31.533H84.6885L79.6295 23.763L79.5875 23.777C79.6525 23.998 79.6845 24.219 79.6845 24.441V31.533H78.5225V21.855H79.6845L84.7455 29.736Z" fill="white"/>
<path d="M90.4676 27.662V31.533H89.3076V21.855H94.4226C94.6436 21.855 94.8646 21.947 95.0866 22.132L95.4176 22.407C95.6396 22.592 95.7496 22.823 95.7496 23.099V26.416C95.7496 26.693 95.6396 26.923 95.4176 27.107L95.0866 27.383C94.8646 27.568 94.6436 27.659 94.4226 27.659H90.4676V27.662ZM90.4676 22.824V26.695H93.9116C94.0766 26.695 94.1826 26.687 94.2286 26.674C94.2746 26.66 94.3386 26.621 94.4216 26.557C94.5046 26.493 94.5526 26.44 94.5666 26.398C94.5816 26.356 94.5876 26.266 94.5876 26.128V23.391C94.5876 23.252 94.5806 23.162 94.5666 23.121C94.5526 23.078 94.5046 23.025 94.4216 22.961C94.3386 22.898 94.2746 22.857 94.2286 22.844C94.1816 22.83 94.0766 22.824 93.9116 22.824H90.4676Z" fill="white"/>
<path d="M105.054 21.855H106.216V30.289C106.216 30.566 106.105 30.796 105.884 30.98L105.552 31.257C105.331 31.441 105.111 31.533 104.888 31.533H100.189C99.9663 31.533 99.7463 31.44 99.5233 31.257L99.1933 30.98C98.9703 30.795 98.8613 30.566 98.8613 30.289V21.855H100.021V30C100.021 30.137 100.029 30.227 100.042 30.268C100.056 30.311 100.104 30.364 100.188 30.428C100.27 30.492 100.334 30.532 100.381 30.545C100.426 30.559 100.533 30.566 100.697 30.566H104.375C104.541 30.566 104.646 30.558 104.693 30.545C104.74 30.532 104.804 30.492 104.886 30.428C104.968 30.364 105.019 30.311 105.031 30.268C105.047 30.227 105.052 30.137 105.052 30V21.855H105.054Z" fill="white"/>
<path d="M108.207 21.855H115.508V22.824H112.438V31.534H111.275V22.824H108.207V21.855Z" fill="white"/>
<path d="M128.931 21.855H133.992C134.213 21.855 134.433 21.948 134.656 22.131L134.988 22.407C135.209 22.591 135.318 22.822 135.318 23.098V30.287C135.318 30.563 135.209 30.795 134.988 30.978L134.656 31.255C134.433 31.439 134.213 31.531 133.992 31.531H128.931C128.71 31.531 128.49 31.438 128.267 31.255L127.935 30.978C127.714 30.794 127.605 30.563 127.605 30.287V23.1C127.605 22.824 127.714 22.592 127.935 22.409L128.267 22.133C128.489 21.948 128.71 21.855 128.931 21.855ZM134.157 29.998V23.391C134.157 23.252 134.149 23.162 134.136 23.12C134.122 23.08 134.074 23.027 133.991 22.961C133.907 22.897 133.845 22.857 133.798 22.845C133.751 22.83 133.646 22.824 133.48 22.824H129.443C129.277 22.824 129.172 22.831 129.125 22.845C129.078 22.858 129.014 22.897 128.932 22.961C128.85 23.027 128.801 23.08 128.787 23.12C128.773 23.162 128.766 23.252 128.766 23.391V29.998C128.766 30.137 128.774 30.227 128.787 30.268C128.801 30.311 128.849 30.364 128.932 30.428C129.015 30.492 129.078 30.532 129.125 30.545C129.172 30.558 129.277 30.566 129.443 30.566H133.48C133.646 30.566 133.751 30.559 133.798 30.545C133.845 30.531 133.907 30.492 133.991 30.428C134.073 30.364 134.122 30.311 134.136 30.268C134.149 30.227 134.157 30.137 134.157 29.998Z" fill="white"/>
<path d="M144.968 21.855H146.13V30.289C146.13 30.566 146.021 30.796 145.798 30.98L145.466 31.257C145.245 31.441 145.025 31.533 144.802 31.533H140.103C139.88 31.533 139.66 31.44 139.439 31.257L139.107 30.98C138.886 30.795 138.775 30.566 138.775 30.289V21.855H139.935V30C139.935 30.137 139.943 30.227 139.958 30.268C139.97 30.311 140.019 30.364 140.103 30.428C140.185 30.492 140.249 30.532 140.296 30.545C140.341 30.559 140.448 30.566 140.614 30.566H144.292C144.456 30.566 144.563 30.558 144.608 30.545C144.655 30.531 144.719 30.492 144.801 30.428C144.885 30.364 144.934 30.311 144.946 30.268C144.962 30.227 144.967 30.137 144.967 30L144.968 21.855Z" fill="white"/>
<path d="M148.121 21.855H155.422V22.824H152.352V31.534H151.191V22.824H148.121V21.855Z" fill="white"/>
<path d="M158.588 27.662V31.533H157.426V21.855H162.543C162.764 21.855 162.984 21.947 163.205 22.132L163.537 22.407C163.758 22.592 163.869 22.823 163.869 23.099V26.416C163.869 26.693 163.758 26.923 163.537 27.107L163.205 27.383C162.984 27.568 162.764 27.659 162.543 27.659H158.588V27.662ZM158.588 22.824V26.695H162.029C162.195 26.695 162.302 26.687 162.347 26.674C162.394 26.66 162.458 26.621 162.542 26.557C162.624 26.493 162.673 26.44 162.687 26.398C162.701 26.356 162.708 26.266 162.708 26.128V23.391C162.708 23.252 162.7 23.162 162.687 23.121C162.673 23.078 162.625 23.025 162.542 22.961C162.458 22.898 162.394 22.857 162.347 22.844C162.302 22.83 162.195 22.824 162.029 22.824H158.588Z" fill="white"/>
<path d="M173.173 21.855H174.335V30.289C174.335 30.566 174.224 30.796 174.001 30.98L173.671 31.257C173.448 31.441 173.228 31.533 173.007 31.533H168.306C168.085 31.533 167.865 31.44 167.642 31.257L167.312 30.98C167.089 30.795 166.98 30.566 166.98 30.289V21.855H168.14V30C168.14 30.137 168.148 30.227 168.161 30.268C168.175 30.311 168.223 30.364 168.306 30.428C168.39 30.492 168.452 30.532 168.499 30.545C168.546 30.558 168.651 30.566 168.817 30.566H172.495C172.661 30.566 172.766 30.558 172.813 30.545C172.858 30.531 172.924 30.492 173.006 30.428C173.09 30.364 173.137 30.311 173.151 30.268C173.165 30.227 173.172 30.137 173.172 30L173.173 21.855Z" fill="white"/>
<path d="M176.326 21.855H183.625V22.824H180.557V31.534H179.395V22.824H176.326V21.855Z" fill="white"/>
<path d="M9.8157 7.458C9.7137 6.581 8.9507 5.896 8.0467 5.896C7.0707 5.896 6.2727 6.688 6.2727 7.663C6.2727 8.637 7.0597 9.429 8.0337 9.429C8.8887 9.429 9.6027 8.817 9.7637 8.01C22.6637 8.122 33.2117 15.751 34.0467 25.35C33.3687 24.032 32.0637 21.86 29.9377 19.665C26.8677 16.496 21.4417 12.719 13.0287 12.719C12.9957 12.719 12.9647 12.725 12.9347 12.737C12.7947 11.902 12.0697 11.263 11.1947 11.263C10.2207 11.263 9.4287 12.055 9.4287 13.029C9.4287 14.003 10.2207 14.795 11.1947 14.795C12.0917 14.795 12.8337 14.123 12.9437 13.255C12.9717 13.265 12.9997 13.27 13.0287 13.27C21.2377 13.27 26.5317 16.947 29.5267 20.032C31.4507 22.013 32.6997 24.011 33.4037 25.32C32.4847 24.494 31.0667 23.317 29.2837 22.149C26.2917 20.189 21.6257 17.857 16.3787 17.85C16.2457 17.005 15.5167 16.354 14.6347 16.354C13.6597 16.354 12.8687 17.146 12.8687 18.121C12.8687 19.095 13.6597 19.887 14.6347 19.887C15.5137 19.887 16.2417 19.242 16.3767 18.4C24.2137 18.41 30.8547 23.742 33.2367 25.916C30.5947 24.969 24.2837 22.887 19.5577 22.797C19.4857 21.887 18.7257 21.17 17.7987 21.17C16.8237 21.17 16.0317 21.963 16.0317 22.936C16.0317 23.91 16.8237 24.704 17.7987 24.704C18.6307 24.704 19.3287 24.073 19.5137 23.296C24.1837 23.376 30.4817 25.488 33.0807 26.347H25.9377H23.9537C23.8507 25.489 23.1047 24.836 22.1997 24.836C21.2267 24.836 20.4347 25.653 20.4347 26.627C20.4347 27.601 21.2267 28.366 22.1997 28.366C23.0547 28.366 23.7717 27.775 23.9327 26.919H25.9377H32.9497C30.2797 28.062 24.1097 29.932 19.5127 30.01C19.3277 29.233 18.6297 28.673 17.7977 28.673C16.8227 28.673 16.0307 29.475 16.0307 30.448C16.0307 31.423 16.8227 32.219 17.7977 32.219C18.7247 32.219 19.4847 31.502 19.5567 30.595C24.2827 30.504 30.5937 28.424 33.2357 27.476C30.8527 29.651 24.2127 34.983 16.3757 34.993C16.2407 34.151 15.5127 33.507 14.6337 33.507C13.6587 33.507 12.8677 34.3 12.8677 35.273C12.8677 36.248 13.6587 37.04 14.6337 37.04C15.5157 37.04 16.2447 36.391 16.3777 35.545C21.6247 35.539 26.2907 33.203 29.2827 31.246C31.0987 30.057 32.5357 28.857 33.4517 28.029C32.7617 29.332 31.5037 31.368 29.5417 33.391C26.5447 36.482 21.2467 40.169 13.0277 40.169C13.0017 40.169 12.9757 40.175 12.9487 40.183C12.8587 39.294 12.1057 38.598 11.1937 38.598C10.2197 38.598 9.4277 39.39 9.4277 40.365C9.4277 41.338 10.2197 42.132 11.1937 42.132C12.0527 42.132 12.7697 41.514 12.9257 40.701C12.9577 40.713 12.9917 40.721 13.0277 40.721C21.4407 40.721 26.8657 36.944 29.9347 33.776C32.0267 31.618 33.3247 29.48 34.0117 28.155C32.9577 37.61 22.4747 45.07 9.6977 45.157C9.4597 44.464 8.8017 43.966 8.0297 43.966C7.0547 43.966 6.2627 44.759 6.2627 45.732C6.2627 46.707 7.0547 47.498 8.0297 47.498C9.0047 47.498 9.7967 46.707 9.7967 45.732C9.7967 45.724 9.8327 45.716 9.8327 45.707C23.4757 45.578 34.4317 37.166 34.7167 26.801V26.58C34.7167 16.113 23.5547 7.585 9.8157 7.458ZM9.22969 7.853C9.13669 8.433 8.6357 8.878 8.0307 8.878C7.3597 8.878 6.8137 8.333 6.8137 7.663C6.8137 6.992 7.3597 6.446 8.0307 6.446C8.6757 6.446 9.20169 6.951 9.24169 7.586C9.21569 7.627 9.2007 7.678 9.2007 7.731C9.2007 7.774 9.21069 7.816 9.22969 7.853ZM11.1947 14.243C10.5247 14.243 9.9787 13.698 9.9787 13.028C9.9787 12.358 10.5247 11.812 11.1947 11.812C11.8647 11.812 12.4117 12.358 12.4117 13.028C12.4117 13.698 11.8647 14.243 11.1947 14.243ZM14.6337 19.334C13.9637 19.334 13.4177 18.788 13.4177 18.119C13.4177 17.448 13.9637 16.902 14.6337 16.902C15.3047 16.902 15.8507 17.448 15.8507 18.119C15.8507 18.789 15.3047 19.334 14.6337 19.334ZM18.9907 23.174C18.8797 23.729 18.3867 24.151 17.7997 24.151C17.1287 24.151 16.5837 23.604 16.5837 22.934C16.5837 22.264 17.1287 21.719 17.7997 21.719C18.4627 21.719 19.0037 22.254 19.0137 22.914C18.9857 22.958 18.9687 23.01 18.9687 23.065C18.9677 23.104 18.9747 23.141 18.9907 23.174ZM22.2007 27.864C21.5307 27.864 20.9867 27.318 20.9867 26.648C20.9867 25.978 21.5307 25.432 22.2007 25.432C22.8727 25.432 23.4177 25.978 23.4177 26.648C23.4177 27.318 22.8727 27.864 22.2007 27.864ZM17.7987 31.671C17.1277 31.671 16.5827 31.126 16.5827 30.455C16.5827 29.785 17.1277 29.238 17.7987 29.238C18.3867 29.238 18.8787 29.66 18.9897 30.216C18.9737 30.249 18.9677 30.285 18.9677 30.324C18.9677 30.379 18.9847 30.43 19.0127 30.474C19.0027 31.136 18.4617 31.671 17.7987 31.671ZM14.6337 36.486C13.9637 36.486 13.4177 35.94 13.4177 35.27C13.4177 34.599 13.9637 34.054 14.6337 34.054C15.3047 34.054 15.8507 34.599 15.8507 35.27C15.8507 35.94 15.3047 36.486 14.6337 36.486ZM11.1947 41.576C10.5247 41.576 9.9787 41.031 9.9787 40.361C9.9787 39.69 10.5247 39.146 11.1947 39.146C11.8647 39.146 12.4117 39.69 12.4117 40.361C12.4117 41.031 11.8647 41.576 11.1947 41.576ZM8.0307 46.942C7.3597 46.942 6.8137 46.396 6.8137 45.726C6.8137 45.056 7.3597 44.511 8.0307 44.511C8.5907 44.511 9.05969 44.892 9.20169 45.407C9.20169 45.414 9.2007 45.422 9.2007 45.429C9.2007 45.474 9.2127 45.518 9.2337 45.556C9.2397 45.613 9.2457 45.668 9.2457 45.726C9.2457 46.396 8.7007 46.942 8.0307 46.942Z" fill="white"/>
<path d="M35.5742 26.795C35.8612 37.16 46.7462 45.572 60.3872 45.701C60.3872 45.711 60.3702 45.719 60.3702 45.726C60.3702 46.699 61.1542 47.492 62.1292 47.492C63.1022 47.492 63.8922 46.699 63.8922 45.726C63.8922 44.753 63.0972 43.96 62.1232 43.96C61.3512 43.96 60.6942 44.458 60.4552 45.151C47.6782 45.065 37.1932 37.605 36.1392 28.15C36.8282 29.475 38.1242 31.613 40.2142 33.771C43.2842 36.939 48.7112 40.716 57.1232 40.716C57.1582 40.716 57.1932 40.708 57.2232 40.696C57.3812 41.508 58.0992 42.127 58.9572 42.127C59.9322 42.127 60.7232 41.333 60.7232 40.36C60.7232 39.385 59.9322 38.594 58.9572 38.594C58.0452 38.594 57.2912 39.289 57.2002 40.178C57.1762 40.169 57.1492 40.164 57.1232 40.164C48.9032 40.164 43.6052 36.478 40.6092 33.386C38.6472 31.363 37.3912 29.326 36.6992 28.024C37.6152 28.852 39.0532 30.051 40.8682 31.241C43.8612 33.2 48.5272 35.534 53.7742 35.54C53.9052 36.386 54.6352 37.035 55.5172 37.035C56.4912 37.035 57.2842 36.243 57.2842 35.268C57.2842 34.295 56.4912 33.502 55.5172 33.502C54.6392 33.502 53.9102 34.147 53.7762 34.988C45.9392 34.977 39.2972 29.644 36.9152 27.47C39.5572 28.417 45.8692 30.497 50.5952 30.587C50.6662 31.495 51.4272 32.21 52.3542 32.21C53.3272 32.21 54.1202 31.407 54.1202 30.434C54.1202 29.461 53.3272 28.65 52.3542 28.65C51.5212 28.65 50.8232 29.228 50.6372 30.004C46.0422 29.926 39.8732 28.056 37.2012 26.912H44.2132H46.2192C46.3792 27.77 47.0952 28.352 47.9502 28.352C48.9242 28.352 49.7172 27.594 49.7172 26.621C49.7172 25.648 48.9242 24.839 47.9502 24.839C47.0472 24.839 46.3002 25.483 46.1972 26.341H44.2132H37.0722C39.6702 25.483 45.9682 23.37 50.6362 23.29C50.8222 24.067 51.5202 24.714 52.3532 24.714C53.3262 24.714 54.1192 23.913 54.1192 22.94C54.1192 21.967 53.3262 21.169 52.3532 21.169C51.4262 21.169 50.6652 21.885 50.5942 22.793C45.8682 22.884 39.5562 24.964 36.9142 25.912C39.2962 23.737 45.9382 18.406 53.7752 18.395C53.9092 19.236 54.6382 19.881 55.5162 19.881C56.4902 19.881 57.2832 19.089 57.2832 18.115C57.2832 17.141 56.4902 16.349 55.5162 16.349C54.6342 16.349 53.9042 16.999 53.7732 17.845C48.5262 17.851 43.8602 20.186 40.8672 22.144C39.0842 23.312 37.6652 24.489 36.7492 25.315C37.4512 24.005 38.7012 22.008 40.6252 20.027C43.6202 16.943 48.9142 13.266 57.1222 13.266C57.1522 13.266 57.1812 13.26 57.2062 13.251C57.3182 14.118 58.0602 14.79 58.9562 14.79C59.9312 14.79 60.7222 13.998 60.7222 13.023C60.7222 12.049 59.9312 11.258 58.9562 11.258C58.0812 11.258 57.3562 11.897 57.2172 12.732C57.1872 12.721 57.1552 12.714 57.1222 12.714C48.7102 12.714 43.2832 16.491 40.2132 19.659C38.0862 21.854 36.7832 24.026 36.1052 25.345C36.9422 15.75 47.4892 8.121 60.3912 8.009C60.5532 8.818 61.2682 9.428 62.1222 9.428C63.0972 9.428 63.8902 8.636 63.8902 7.663C63.8902 6.689 63.1002 5.896 62.1272 5.896C61.2222 5.896 60.5062 6.581 60.4052 7.458C46.6652 7.584 35.5742 16.113 35.5742 26.58V26.795ZM60.9222 7.853C60.9412 7.816 60.9522 7.775 60.9522 7.731C60.9522 7.677 60.9362 7.628 60.9082 7.585C60.9482 6.95 61.4772 6.445 62.1212 6.445C62.7922 6.445 63.3382 6.991 63.3382 7.662C63.3382 8.331 62.7922 8.877 62.1212 8.877C61.5162 8.878 61.0152 8.433 60.9222 7.853ZM57.7422 13.027C57.7422 12.357 58.2882 11.812 58.9582 11.812C59.6282 11.812 60.1742 12.357 60.1742 13.027C60.1742 13.698 59.6282 14.244 58.9582 14.244C58.2882 14.244 57.7422 13.698 57.7422 13.027ZM54.3022 18.119C54.3022 17.448 54.8472 16.904 55.5182 16.904C56.1882 16.904 56.7342 17.448 56.7342 18.119C56.7342 18.789 56.1882 19.335 55.5182 19.335C54.8472 19.334 54.3022 18.789 54.3022 18.119ZM46.7352 26.648C46.7352 25.978 47.2802 25.433 47.9512 25.433C48.6222 25.433 49.1672 25.978 49.1672 26.648C49.1672 27.318 48.6222 27.864 47.9512 27.864C47.2802 27.864 46.7352 27.318 46.7352 26.648ZM54.3022 35.271C54.3022 34.6 54.8472 34.055 55.5182 34.055C56.1882 34.055 56.7342 34.6 56.7342 35.271C56.7342 35.941 56.1882 36.485 55.5182 36.485C54.8472 36.484 54.3022 35.94 54.3022 35.271ZM57.7422 40.361C57.7422 39.691 58.2882 39.144 58.9582 39.144C59.6282 39.144 60.1742 39.691 60.1742 40.361C60.1742 41.031 59.6282 41.576 58.9582 41.576C58.2882 41.576 57.7422 41.031 57.7422 40.361ZM60.9062 45.727C60.9062 45.669 60.9112 45.614 60.9202 45.557C60.9412 45.519 60.9532 45.477 60.9532 45.43C60.9532 45.422 60.9512 45.414 60.9512 45.408C61.0912 44.892 61.5632 44.512 62.1222 44.512C62.7932 44.512 63.3392 45.057 63.3392 45.727C63.3392 46.397 62.7932 46.943 62.1222 46.943C61.4522 46.942 60.9062 46.396 60.9062 45.727ZM51.1622 23.173C51.1772 23.14 51.1852 23.104 51.1852 23.065C51.1852 23.01 51.1662 22.959 51.1382 22.915C51.1502 22.254 51.6892 21.72 52.3542 21.72C53.0242 21.72 53.5692 22.265 53.5692 22.935C53.5692 23.605 53.0242 24.151 52.3542 24.151C51.7652 24.149 51.2732 23.729 51.1622 23.173ZM51.1382 30.475C51.1662 30.431 51.1852 30.379 51.1852 30.325C51.1852 30.286 51.1762 30.25 51.1622 30.217C51.2732 29.661 51.7662 29.239 52.3542 29.239C53.0242 29.239 53.5692 29.786 53.5692 30.456C53.5692 31.126 53.0242 31.672 52.3542 31.672C51.6892 31.671 51.1502 31.136 51.1382 30.475Z" fill="white"/>
</svg>
