<svg width="422" height="121" viewBox="0 0 422 121" fill="none" xmlns="http://www.w3.org/2000/svg">
<mask id="mask0_1846_88" style="mask-type:luminance" maskUnits="userSpaceOnUse" x="0" y="0" width="422" height="121">
<path d="M421.4 0.600098H0.599609V120.1H421.4V0.600098Z" fill="white"/>
</mask>
<g mask="url(#mask0_1846_88)">
<path d="M66.0998 119.9C63.8998 120 61.7998 119.2 60.0998 117.7C58.4998 116.2 57.3998 114.2 57.1998 112L56.1998 104.2C46.6998 101.5 41.1998 94.5003 39.6998 83.3003L31.1998 17.5003C29.3998 17.2003 27.4998 17.1003 25.6998 17.1003C22.9998 17.1003 20.1998 17.4003 17.5998 18.2003V118H0.799805V37.8003C0.799805 26.9003 5.6998 19.2003 14.5998 16.0003V10.8003C14.5998 4.80029 18.1998 0.800293 23.5998 0.800293C28.9998 0.800293 32.3998 4.20029 33.1998 10.3003L33.8998 15.1003C43.5998 17.8003 49.2998 25.6003 50.9998 38.4003L58.8998 101.8C63.5998 102.7 68.4998 102.7 73.1998 101.8L81.0998 38.4003C82.6998 25.7003 88.4998 17.9003 98.1998 15.1003L98.8998 10.3003C99.7998 4.20029 103.2 0.800293 108.5 0.800293C113.8 0.800293 117.5 4.80029 117.5 10.8003V16.0003C126.4 19.2003 131.3 26.9003 131.3 37.8003V118H114.5V18.3003C111.9 17.6003 109.1 17.2003 106.4 17.2003C104.5 17.2003 102.7 17.3003 100.9 17.6003L92.3998 83.4003C90.9998 94.3003 85.2998 101.5 75.8998 104.3L74.9998 112.1C74.8998 114.3 73.7998 116.4 72.1998 117.9C70.4998 119.3 68.2998 120 66.0998 119.9ZM59.2998 105L60.1998 111.7C60.2998 113.2 60.9998 114.6 62.0998 115.5C63.1998 116.5 64.5998 117 66.0998 116.9C66.7998 117 67.5998 116.9 68.2998 116.6C68.9998 116.4 69.5998 116 70.1998 115.5C70.6998 115 71.1998 114.4 71.4998 113.7C71.7998 113 71.9998 112.3 71.9998 111.6L72.8998 104.9C68.2998 105.7 63.7998 105.7 59.2998 105ZM117.5 115H128.3V37.8003C128.3 28.6003 124.6 22.2003 117.5 19.2003V115ZM3.7998 115H14.5998V19.2003C7.4998 22.2003 3.8998 28.5003 3.8998 37.8003L3.7998 115ZM34.3998 18.4003L42.7998 83.0003C43.9998 92.3003 48.3998 98.4003 55.8998 101L48.1998 38.8003C46.6998 27.8003 42.1998 21.1003 34.3998 18.4003ZM97.7998 18.4003C89.9998 21.1003 85.4998 27.8003 84.0998 38.8003L76.3998 101C83.8998 98.4003 88.2998 92.3003 89.4998 83.0003L97.7998 18.4003ZM17.5998 15.1003C20.2998 14.5003 22.9998 14.1003 25.6998 14.2003C27.3998 14.2003 29.0998 14.3003 30.7998 14.5003L30.2998 10.8003C29.5998 6.20029 27.3998 3.90028 23.5998 3.90028C19.7998 3.90028 17.5998 6.60028 17.5998 10.9003V15.1003ZM106.4 14.1003C109.1 14.1003 111.9 14.4003 114.5 15.0003V10.8003C114.5 6.50029 112.2 3.80029 108.5 3.80029C104.8 3.80029 102.5 6.10029 101.8 10.7003L101.3 14.4003C103 14.2003 104.7 14.1003 106.4 14.1003Z" fill="white"/>
<path d="M177.5 118H161V2.80029H177.4V118H177.5ZM164 115H174.5V5.80029H164V115Z" fill="white"/>
<path d="M284.199 119.9C277.099 119.9 275.399 113.4 274.899 111.2L273.699 105.7C262.999 103.8 256.499 96.9003 253.799 84.7003L238.299 17.4003C236.499 17.2003 234.699 17.1003 232.999 17.1003C229.999 17.1003 227.099 17.5003 224.199 18.3003V117.9H207.399V37.3003C207.399 26.9003 212.099 19.6003 221.199 16.2003V10.8003C221.199 4.80029 224.799 0.800293 230.199 0.800293C234.899 0.800293 238.299 3.80029 239.399 8.70029L240.799 14.8003C251.199 16.7003 257.499 23.4003 260.399 35.8003L276.199 103.1C277.999 103.3 279.799 103.4 281.599 103.4C284.599 103.4 287.499 103.1 290.299 102.3V2.70029H306.999V86.0003C306.999 94.5003 301.999 101.2 293.199 104.5V109.7C293.199 116 289.699 119.9 284.199 119.9ZM276.799 106.2L277.699 110.5C278.799 115 280.699 116.9 284.099 116.9C287.899 116.9 290.099 114.3 290.099 109.7V105.4C287.199 106.1 284.299 106.4 281.399 106.3C279.899 106.4 278.399 106.3 276.799 106.2ZM210.399 115H221.199V19.4003C213.999 22.5003 210.399 28.5003 210.399 37.3003V115ZM241.499 18.0003L256.699 84.1003C259.099 94.7003 264.299 100.6 272.999 102.6L257.499 36.5003C254.899 25.8003 249.899 20.0003 241.499 18.0003ZM293.199 5.80029V101.4C300.199 98.4003 303.999 93.1003 303.999 86.1003V5.80029H293.199ZM224.199 15.2003C227.099 14.5003 229.999 14.1003 232.999 14.1003C234.499 14.1003 236.099 14.2003 237.599 14.3003L236.499 9.40028C235.999 7.30028 234.599 3.80029 230.299 3.80029C225.999 3.80029 224.299 7.40029 224.299 10.8003V15.2003H224.199Z" fill="white"/>
<path d="M422 118H404.5L395.9 83.7004H347.3L338.8 118H321.3L343.9 34.7004C346.5 25.2004 352.5 18.7004 361.2 15.8004L362.8 9.3004C363.7 5.7004 365.6 0.900391 371.6 0.900391C377.6 0.900391 379.5 5.60039 380.4 9.20039L381.9 15.8004C390.6 18.6004 396.6 25.2004 399.2 34.7004L422 118ZM406.8 115H418.1L396.4 35.5004C394.2 27.7004 389.6 22.2004 382.8 19.4004L396.2 72.5004H347L360.3 19.3004C353.5 22.1004 348.9 27.7004 346.7 35.4004L325.1 115H336.4L344.9 80.7004H398.1L406.8 115ZM350.9 69.4004H392.4L379.5 18.1004C374.3 16.8004 368.9 16.8004 363.7 18.1004L350.9 69.4004ZM364.5 14.8004V14.9004C369.2 13.9004 374 13.9004 378.7 14.9004V14.8004L377.5 9.90039C376.4 5.50039 374.7 3.8004 371.6 3.8004C368.5 3.8004 366.8 5.50039 365.7 9.90039L364.5 14.8004Z" fill="white"/>
</g>
</svg>
