<svg width="980" height="100" viewBox="0 0 980 100" fill="none" xmlns="http://www.w3.org/2000/svg">
<path d="M19.4915 11.9237C18.8525 15.6333 18.2134 19.2899 17.5743 22.8935C17.0418 26.4971 16.6157 30.4717 16.2962 34.8172C15.9767 39.1627 15.8169 44.3561 15.8169 50.3975C15.8169 58.0286 16.243 64.4409 17.095 69.6343C17.9471 74.7218 19.3318 78.8024 21.249 81.876C23.1662 84.9494 25.7756 87.1751 29.0775 88.5533C32.3794 89.8251 36.4268 90.461 41.2198 90.461C42.0718 90.461 43.5631 89.9841 45.6932 89.0302C47.8234 88.0763 49.8472 87.0697 51.7644 86.0095C53.6816 84.8439 54.7467 84.049 54.9597 83.6248C55.4922 81.293 55.9715 78.6434 56.3976 75.6757C56.9301 72.602 57.303 69.0514 57.516 65.0239C57.8355 60.9963 57.9953 56.2798 57.9953 50.8744C57.9953 42.5013 57.303 35.3471 55.9183 29.4118C54.6402 23.4764 52.3502 18.9719 49.0483 15.8983C45.853 12.7186 41.3263 11.1288 35.4682 11.1288C34.8291 11.1288 34.403 11.1288 34.19 11.1288C33.9771 11.1288 33.4444 11.1817 32.5924 11.2878L30.5154 1.7488C30.9415 1.53683 31.3675 1.43084 31.7936 1.43084C32.3261 1.32485 32.6989 1.27185 32.9119 1.27185C41.5393 1.27185 48.8886 2.91468 54.9597 6.20031C61.1374 9.37997 65.8238 14.4144 69.0192 21.3037C72.2145 28.0869 73.8122 36.99 73.8122 48.0127C73.8122 55.3259 73.3861 61.8442 72.534 67.5676C71.682 73.1849 70.7766 77.7954 69.818 81.399C68.4333 83.2008 66.4629 85.2146 63.9066 87.4404C61.4569 89.5599 58.7941 91.5739 55.9183 93.4817C53.0425 95.3895 50.3797 96.9793 47.93 98.2512C45.4803 99.4168 43.6695 100 42.4979 100C35.4682 100 29.2905 99.0988 23.965 97.2973C18.6395 95.4958 14.2192 92.7395 10.7044 89.0302C7.1895 85.2146 4.52672 80.3922 2.71603 74.5628C0.905346 68.6275 0 61.6323 0 53.5771C0 46.2639 0.426046 39.7456 1.27813 34.0223C2.23673 28.1929 3.40835 23.4764 4.793 19.8728C5.96462 18.071 7.50903 16.2162 9.42623 14.3084C11.3434 12.4006 13.3139 10.5989 15.3376 8.90302L19.4915 11.9237ZM30.5154 1.7488H34.5096V82.5119C34.5096 83.1479 34.2433 84.3134 33.7107 86.0095C33.1782 87.5994 32.3261 89.4544 31.1545 91.5739H26.2017V15.4213C26.2017 14.2555 26.6278 12.4006 27.4799 9.85692C28.4385 7.3132 29.4503 4.61049 30.5154 1.7488ZM148.902 9.85692V3.6566C150.18 3.44462 151.83 3.23264 153.854 3.02067C155.878 2.7027 157.955 2.43773 160.085 2.22576C162.215 1.90779 164.079 1.69581 165.677 1.58983C167.275 1.37784 168.233 1.27185 168.553 1.27185C168.872 1.27185 169.458 1.64282 170.31 2.38474C171.162 3.12665 171.908 3.97456 172.547 4.92845C173.292 5.77636 173.665 6.3593 173.665 6.67727V88.0763L203.702 91.4149C204.553 91.5212 205.352 91.2032 206.098 90.461C206.843 89.6134 207.482 88.288 208.015 86.4865C208.654 84.685 209.134 82.3529 209.453 79.4913C209.879 76.6296 210.092 73.132 210.092 68.9984C210.092 64.5469 209.293 61.3673 207.696 59.4595C206.098 57.5517 203.648 56.3328 200.346 55.8029L186.447 53.5771V46.1049H198.11C198.749 46.1049 199.388 45.628 200.027 44.6741C200.666 43.6142 201.251 42.1833 201.784 40.3816C202.317 38.5798 202.743 36.566 203.063 34.3402C203.488 32.0085 203.702 29.5707 203.702 27.027C203.702 21.9396 203.488 18.124 203.063 15.5803C202.743 12.9305 202.05 11.1817 200.986 10.3339C200.027 9.48599 198.642 9.16802 196.832 9.37997L186.926 10.1749L188.204 1.27185H194.755C200.08 1.27185 204.553 2.06677 208.175 3.6566C211.796 5.14043 214.566 7.79014 216.483 11.6057C218.4 15.3153 219.359 20.6148 219.359 27.504C219.359 28.5639 218.773 30.1537 217.601 32.2734C216.536 34.3932 214.991 36.725 212.968 39.2687C211.051 41.8124 208.814 44.3561 206.258 46.8998V47.8537C212.329 48.9136 217.068 51.5103 220.477 55.6439C223.992 59.7774 225.749 64.8649 225.749 70.9062C225.749 73.6619 225.59 76.2586 225.27 78.6963C224.951 81.134 224.364 83.1479 223.513 84.7377C223.086 85.5853 222.181 86.6455 220.797 87.9173C219.412 89.1892 217.814 90.5138 216.004 91.8919C214.299 93.27 212.489 94.5946 210.572 95.8665C208.654 97.032 206.843 97.9859 205.139 98.7281C203.542 99.4703 202.21 99.841 201.145 99.841C198.482 99.841 195.447 99.7883 192.039 99.682C188.63 99.5758 185.169 99.4168 181.654 99.2051C178.139 98.9934 174.837 98.7809 171.748 98.5692C168.659 98.3575 166.156 98.0922 164.239 97.7742C163.92 97.668 163.334 97.2973 162.482 96.6614C161.629 95.9192 160.777 95.1243 159.926 94.2766C159.18 93.429 158.807 92.8458 158.807 92.5278V12.2417L148.902 9.85692ZM186.766 1.27185H190.76V82.5119C190.76 83.1479 190.601 84.049 190.281 85.2146C189.962 86.3802 189.216 88.0236 188.044 90.1431H182.453V14.9444C182.453 13.7785 182.878 11.9237 183.731 9.37997C184.689 6.83624 185.701 4.13354 186.766 1.27185ZM302.592 98.4102L303.71 69.3164H312.657L315.214 86.1685C317.344 86.5928 319.687 87.0697 322.243 87.5994C324.906 88.129 327.516 88.6595 330.072 89.1892C332.734 89.6134 335.078 89.9841 337.102 90.3021C339.125 90.5138 340.563 90.62 341.415 90.62C341.948 90.62 342.959 90.1958 344.451 89.3482C346.049 88.5005 347.752 87.4931 349.563 86.3275C351.374 85.0556 352.972 83.7838 354.356 82.5119C355.847 81.2401 356.646 80.1802 356.753 79.3323C356.966 78.1664 357.125 76.8415 357.232 75.3577C357.338 73.7679 357.392 72.231 357.392 70.7472C357.392 69.1574 357.285 67.7795 357.072 66.6137C356.966 65.4478 356.753 64.7059 356.433 64.3879C355.581 63.2221 353.823 61.7382 351.161 59.9364C348.605 58.1346 345.622 56.1738 342.214 54.0541C338.912 51.8283 335.557 49.6025 332.149 47.3768C328.847 45.151 325.918 43.0313 323.362 41.0175C320.911 39.0037 319.261 37.2549 318.409 35.7711C318.195 35.2411 317.93 34.2342 317.61 32.7504C317.397 31.1606 317.237 29.3588 317.131 27.345C317.024 25.2253 316.917 23.2114 316.811 21.3037C314.894 22.7875 313.402 24.1124 312.338 25.2782C311.379 26.3381 310.686 27.398 310.261 28.4579C309.941 29.5178 309.782 30.7896 309.782 32.2734C309.782 33.9693 309.887 35.4531 310.101 36.725C310.421 37.8908 310.793 39.0037 311.219 40.0636C312.284 42.0774 313.935 43.8792 316.172 45.469C318.409 47.0588 321.391 49.1786 325.119 51.8283C327.569 53.5241 330.072 55.2729 332.628 57.0747C335.184 58.7706 337.581 60.4663 339.818 62.1622C342.16 63.752 344.131 65.2358 345.729 66.6137C347.327 67.8855 348.338 68.9984 348.765 69.9523C349.297 71.0122 349.51 72.231 349.404 73.6089C349.404 74.8808 349.297 75.9407 349.084 76.7886C348.658 77.7424 347.539 78.8553 345.729 80.1272C344.025 81.293 342.427 82.2469 340.936 82.9889C341.042 81.717 341.096 80.4452 341.096 79.1733C341.202 77.9014 341.202 76.7356 341.096 75.6757C341.096 74.6158 340.882 73.8209 340.457 73.2909C339.604 72.1251 337.847 70.5882 335.184 68.6804C332.628 66.7727 329.646 64.7059 326.238 62.4801C322.829 60.2544 319.421 57.9757 316.012 55.6439C312.71 53.3121 309.835 51.0864 307.385 48.9666C305.042 46.7409 303.657 44.8331 303.231 43.2432C302.912 42.0774 302.645 40.7525 302.432 39.2687C302.219 37.6789 302.113 36.0361 302.113 34.3402C302.113 32.6444 302.166 31.0546 302.273 29.5707C302.485 27.9809 302.752 26.6561 303.071 25.5962C304.03 23.7944 305.574 21.8336 307.705 19.7138C309.835 17.4881 312.231 15.3153 314.894 13.1955C317.663 10.9698 320.432 9.00904 323.202 7.3132C326.078 5.51139 328.74 4.08055 331.19 3.02067C333.747 1.96078 335.824 1.43084 337.421 1.43084C338.06 1.43084 339.179 1.48383 340.776 1.58983C342.48 1.58983 344.451 1.69581 346.688 1.90778C349.03 2.01377 351.427 2.17276 353.877 2.38474C356.433 2.59671 358.883 2.86168 361.226 3.17965C363.569 3.49762 365.646 3.81558 367.457 4.13354L366.179 31.4785H357.232L354.836 15.2623C353.238 14.5204 351.321 13.8844 349.084 13.3545C346.953 12.7186 344.823 12.2417 342.693 11.9237C340.563 11.6057 338.752 11.4467 337.261 11.4467C336.409 11.4467 335.664 11.5528 335.025 11.7647C334.386 11.8707 333.852 12.0297 333.427 12.2417C333.107 12.4536 332.841 12.7716 332.628 13.1955C332.202 13.9375 331.882 15.1033 331.67 16.6932C331.563 18.283 331.51 19.9788 331.51 21.7806C331.616 23.4764 331.776 25.0663 331.989 26.5501C332.202 27.928 332.521 28.8288 332.948 29.2528C334.226 30.6307 335.983 32.1145 338.22 33.7043C340.563 35.2941 343.119 36.9369 345.889 38.6327C348.765 40.3286 351.64 42.1304 354.516 44.0382C357.498 45.8399 360.214 47.7477 362.664 49.7615C365.221 51.6693 367.351 53.5771 369.055 55.4849C369.375 56.7568 369.587 58.5585 369.694 60.8903C369.907 63.2221 370.014 65.7127 370.014 68.3625C370.014 70.9062 369.907 73.2909 369.694 75.5167C369.587 77.7424 369.375 79.3852 369.055 80.4451C368.096 82.459 366.445 84.6314 364.102 86.9634C361.759 89.1892 359.096 91.3087 356.114 93.3227C353.238 95.3368 350.468 96.9793 347.806 98.2512C345.143 99.4168 343.013 100 341.415 100C339.391 100 336.675 99.9473 333.267 99.841C329.965 99.7347 326.397 99.5758 322.563 99.3641C318.728 99.2578 315.054 99.0988 311.539 98.8871C308.024 98.7808 305.042 98.6219 302.592 98.4102ZM465.372 12.0827C464.733 15.8983 464.093 19.6078 463.454 23.2114C462.922 26.7091 462.496 30.5246 462.176 34.6582C461.857 38.6857 461.697 43.4552 461.697 48.9666C461.697 59.6714 462.603 67.8855 464.413 73.6089C466.33 79.2263 468.833 83.0949 471.922 85.2146C475.117 87.2287 478.525 88.2353 482.147 88.2353L504.514 88.0763V96.3434C503.129 96.7676 500.893 97.191 497.804 97.6153C494.822 98.0395 491.626 98.4102 488.218 98.7281C484.916 99.1524 481.987 99.4703 479.431 99.682C476.875 99.8937 475.277 100 474.638 100C469.952 100 465.372 98.4102 460.898 95.2305C456.531 92.0509 452.91 87.1224 450.034 80.4451C447.265 73.6619 445.88 65.0239 445.88 54.531C445.88 47.2178 446.306 40.5405 447.158 34.4992C448.117 28.4579 449.288 23.6354 450.673 20.0318C451.844 18.336 453.389 16.5342 455.306 14.6264C457.223 12.6126 459.194 10.7578 461.218 9.062L465.372 12.0827ZM472.082 88.5533V15.4213C472.082 14.2555 472.508 12.4006 473.36 9.85692C474.318 7.3132 475.33 4.61049 476.395 1.7488H480.39V79.4913C480.39 80.1272 480.123 81.293 479.591 82.9889C479.058 84.5787 478.206 86.4338 477.035 88.5533H472.082ZM504.834 30.3657H496.207L494.289 14.1494C493.011 13.8315 491.414 13.5135 489.496 13.1955C487.579 12.8776 485.715 12.6126 483.904 12.4006C482.2 12.1887 480.762 12.0827 479.591 12.0827C478.525 12.0827 477.567 12.1356 476.715 12.2417C475.969 12.2417 475.33 12.2946 474.798 12.4006L476.395 1.7488C476.928 1.53683 477.354 1.43084 477.674 1.43084C477.993 1.32485 478.366 1.27185 478.792 1.27185C479.857 1.27185 481.987 1.37784 485.183 1.58983C488.485 1.69581 492.106 1.85479 496.047 2.06677C499.988 2.27875 503.556 2.54371 506.751 2.86168L504.834 30.3657ZM589.392 13.5135L579.487 8.58506L581.564 1.27185C583.375 1.37784 585.186 1.48383 586.996 1.58983C588.807 1.69581 590.511 1.85479 592.109 2.06677C593.706 2.17276 595.091 2.33174 596.262 2.54371C597.541 2.75569 598.499 2.96767 599.138 3.17965C599.458 3.28563 599.991 3.70959 600.736 4.45151C601.589 5.19342 602.387 5.98834 603.132 6.83625C603.878 7.68415 604.251 8.26709 604.251 8.58506V83.7838C607.66 84.8439 611.015 85.7443 614.316 86.4865C617.618 87.2287 620.973 87.7056 624.381 87.9173L639.24 86.4865V90.779C637.536 91.9446 635.512 93.27 633.169 94.7536C630.826 96.2371 628.695 97.509 626.778 98.5692C624.967 99.5231 623.849 100 623.423 100C618.204 99.7883 613.357 99.2578 608.884 98.4102C604.517 97.5625 600.47 96.5024 596.742 95.2305C596.316 95.0188 595.464 94.1176 594.185 92.5278C593.014 90.938 591.896 89.2955 590.83 87.5994C589.872 85.7978 589.392 84.5787 589.392 83.9428V13.5135ZM637.642 12.2417L627.736 9.85692V3.6566C629.441 3.33863 631.731 3.02066 634.606 2.7027C637.589 2.27874 640.358 1.96077 642.914 1.7488C645.471 1.43083 646.962 1.27185 647.388 1.27185C647.707 1.27185 648.293 1.64282 649.145 2.38474C649.998 3.12665 650.743 3.97456 651.382 4.92845C652.128 5.77636 652.5 6.3593 652.5 6.67727V87.1224L662.406 92.0509L660.329 99.3641C657.986 99.1524 655.59 98.9398 653.139 98.7281C650.797 98.6219 648.666 98.4629 646.749 98.2512C644.938 97.9332 643.607 97.668 642.755 97.4563C642.542 97.35 642.01 96.8731 641.157 96.0254C640.305 95.1778 639.506 94.2766 638.76 93.3227C638.015 92.3688 637.642 91.6802 637.642 91.256V12.2417ZM617.352 2.7027H621.346V79.0143C621.346 79.6502 621.08 80.8161 620.547 82.5119C620.015 84.1017 619.163 85.9568 617.991 88.0763H613.038V16.3752C613.038 15.2094 613.464 13.3545 614.316 10.8108C615.275 8.26709 616.287 5.56438 617.352 2.7027ZM776.473 45.31L792.29 48.1717C793.142 48.2777 793.941 48.0127 794.687 47.3768C795.433 46.6348 796.072 45.416 796.604 43.7202C797.243 41.9184 797.722 39.5866 798.042 36.725C798.468 33.8633 798.681 30.3657 798.681 26.2321C798.681 19.6609 797.935 15.1033 796.444 12.5596C794.953 10.0159 792.663 8.95599 789.574 9.37997L776.633 10.9698V1.27185H788.616C794.26 1.27185 799 2.06677 802.835 3.6566C806.669 5.14043 809.545 7.84314 811.462 11.7647C813.379 15.5803 814.338 21.0387 814.338 28.1399C814.338 30.7896 814.178 33.3863 813.859 35.93C813.646 38.3678 813.113 40.3286 812.261 41.8124C811.729 42.6603 810.77 43.7732 809.385 45.151C808.107 46.4229 806.562 47.7477 804.752 49.1256C802.942 50.5035 801.077 51.8283 799.16 53.1002C797.243 54.266 795.433 55.2199 793.728 55.9618C792.13 56.7038 790.799 57.0747 789.734 57.0747C787.497 57.0747 785.26 57.0218 783.024 56.9157C780.787 56.8097 778.55 56.7038 776.313 56.5978L776.473 45.31ZM746.916 12.2417L737.011 9.85692V3.6566C738.289 3.44462 739.94 3.23264 741.964 3.02067C743.988 2.7027 746.065 2.43773 748.195 2.22576C750.325 1.90779 752.189 1.69581 753.786 1.58983C755.384 1.37784 756.343 1.27185 756.662 1.27185C756.982 1.27185 757.568 1.64282 758.42 2.38474C759.271 3.12665 760.017 3.97456 760.656 4.92845C761.402 5.77636 761.775 6.3593 761.775 6.67727V89.1892L775.515 91.5739L772.479 97.4563C771.414 97.5625 769.763 97.7742 767.526 98.0922C765.396 98.4102 763.213 98.6754 760.976 98.8871C758.739 99.2051 756.769 99.4703 755.065 99.682C753.467 99.8937 752.561 100 752.349 100C752.029 100 751.443 99.6293 750.591 98.8871C749.739 98.1449 748.887 97.35 748.035 96.5024C747.289 95.6548 746.916 95.0715 746.916 94.7536V12.2417ZM802.675 96.0254C800.971 92.3161 798.947 87.8646 796.604 82.6709C794.367 77.4774 792.13 72.1251 789.894 66.6137C787.764 60.9963 785.793 55.9089 783.982 51.3513H800.758V53.7361C802.355 57.8696 804.113 62.1092 806.03 66.4547C808.054 70.6943 810.077 74.7747 812.101 78.6963C814.125 82.5119 815.989 86.0623 817.693 89.3482L826.161 91.8919L825.042 99.3641C823.125 99.4703 820.941 99.4703 818.492 99.3641C816.042 99.2578 813.646 99.0461 811.302 98.7281C809.066 98.5164 807.148 98.1985 805.551 97.7742C803.953 97.2446 802.995 96.6614 802.675 96.0254ZM774.876 1.27185H778.87V82.5119C778.87 83.1479 778.603 84.3134 778.071 86.0095C777.539 87.5994 776.686 89.4544 775.515 91.5739H770.562V14.9444C770.562 13.7785 770.988 11.9237 771.84 9.37997C772.799 6.83624 773.81 4.13354 774.876 1.27185ZM904.271 31.6375C905.448 29.4118 906.617 27.451 907.785 25.7552C908.963 23.9534 910.182 22.2046 911.46 20.5087C912.848 18.707 914.395 16.6932 916.093 14.4674H920.407C920.088 16.5871 919.827 19.3429 919.608 22.7345C919.398 26.0202 919.238 30.4186 919.129 35.93C919.028 41.4415 918.969 48.5426 918.969 57.2337C918.969 65.8188 918.969 76.4706 918.969 89.1892L932.709 91.5739L929.673 97.4563C928.614 97.5625 927.016 97.7742 924.88 98.0922C922.753 98.4102 920.567 98.6754 918.33 98.8871C916.093 99.2051 914.126 99.4703 912.419 99.682C910.821 99.8937 909.862 100 909.543 100C909.223 100 908.643 99.6293 907.785 98.8871C906.936 98.1449 906.087 97.35 905.229 96.5024C904.489 95.6548 904.111 95.0715 904.111 94.7536C904.33 90.62 904.59 86.6455 904.91 82.8299C905.339 78.9083 905.549 74.0329 905.549 68.2035C905.549 63.752 905.389 59.4065 905.069 55.1669C904.75 50.8214 904.489 46.6879 904.271 42.7663C904.06 38.7388 904.06 35.0291 904.271 31.6375ZM928.555 51.9873L959.23 51.0334V59.4595L928.555 58.5056V51.9873ZM936.064 15.1033V82.5119C936.064 83.1479 935.803 84.3134 935.265 86.0095C934.735 87.5994 933.886 89.4544 932.709 91.5739H927.756V15.1033H936.064ZM897.56 11.7647L898.679 0C904.54 0.423948 910.821 1.00688 917.531 1.7488C924.351 2.38473 930.952 3.12665 937.342 3.97455C943.842 4.71648 949.543 5.4584 954.437 6.20031C959.34 6.94223 962.854 7.63116 964.982 8.26709C965.2 8.37311 965.571 8.69107 966.1 9.22099C966.739 9.64497 967.328 10.1749 967.858 10.8108C968.497 11.3407 969.035 11.9237 969.455 12.5596C969.884 13.0895 970.094 13.4605 970.094 13.6725V89.0302L980 91.4149V97.6153C978.722 97.827 977.074 98.0922 975.047 98.4102C973.029 98.6219 970.952 98.8344 968.816 99.0461C966.689 99.3641 964.822 99.5758 963.224 99.682C961.627 99.8937 960.668 100 960.349 100C960.029 100 959.449 99.5758 958.591 98.7281C957.742 97.9859 956.943 97.191 956.195 96.3434C955.556 95.4958 955.236 94.9126 955.236 94.5946V20.8267L919.608 16.6932L914.336 17.0111L914.016 16.0572L897.56 11.7647Z" fill="white"/>
</svg>
