<svg height="46.006" viewBox="0 0 46 46.006" width="46" xmlns="http://www.w3.org/2000/svg" xmlns:xlink="http://www.w3.org/1999/xlink"><filter id="a"><feOffset/><feGaussianBlur result="blur" stdDeviation="5.5"/><feFlood flood-color="#c4c7ff" result="color"/><feComposite in="SourceGraphic" in2="blur" operator="out"/><feComposite in="color" operator="in"/><feComposite in2="SourceGraphic" operator="in"/></filter><path d="m47.878 18.514a2.3 2.3 0 0 0 -2-1.555l-13.108-1.041-5.67-12.561a2.3 2.3 0 0 0 -4.191 0l-5.678 12.561-13.113 1.041a2.3 2.3 0 0 0 -1.423 3.941l9.69 9.446-3.427 14.839a2.3 2.3 0 0 0 3.519 2.431l12.523-8.349 12.524 8.349a2.3 2.3 0 0 0 3.489-2.544l-4.207-14.72 10.433-9.389a2.3 2.3 0 0 0 .639-2.45z" fill="#737aef" transform="translate(-2 -1.998)"/><g filter="url(#a)"><path d="m47.878 18.514a2.3 2.3 0 0 0 -2-1.555l-13.108-1.041-5.67-12.561a2.3 2.3 0 0 0 -4.191 0l-5.678 12.561-13.113 1.041a2.3 2.3 0 0 0 -1.423 3.941l9.69 9.446-3.427 14.839a2.3 2.3 0 0 0 3.519 2.431l12.523-8.349 12.524 8.349a2.3 2.3 0 0 0 3.489-2.544l-4.207-14.72 10.433-9.389a2.3 2.3 0 0 0 .639-2.45z" fill="#fff" transform="translate(-2 -2)"/></g></svg>