<svg height="44.535" viewBox="0 0 40.222 44.535" width="40.222" xmlns="http://www.w3.org/2000/svg" xmlns:xlink="http://www.w3.org/1999/xlink"><filter id="a" filterUnits="userSpaceOnUse" height="44.535" width="40.222" x="0" y="0"><feOffset dy="3"/><feGaussianBlur result="blur" stdDeviation="5.5"/><feFlood flood-color="#c4c7ff" result="color"/><feComposite in="SourceGraphic" in2="blur" operator="out"/><feComposite in="color" operator="in"/><feComposite in2="SourceGraphic" operator="in"/></filter><path d="m41.943 11.144-17.752-8.907a2.22 2.22 0 0 0 -1.993 0l-17.872 8.902a2.233 2.233 0 0 0 -1.211 1.708c-.029.216-2.549 21.689 19.017 33.416a2.215 2.215 0 0 0 2.158-.02c20.721-11.709 18.956-32.443 18.871-33.325a2.227 2.227 0 0 0 -1.218-1.775z" fill="#737aef" transform="translate(-3.01 -1.999)"/><g filter="url(#a)"><path d="m41.943 11.144-17.752-8.907a2.22 2.22 0 0 0 -1.993 0l-17.872 8.902a2.233 2.233 0 0 0 -1.211 1.708c-.029.216-2.549 21.689 19.017 33.416a2.215 2.215 0 0 0 2.158-.02c20.721-11.709 18.956-32.443 18.871-33.325a2.227 2.227 0 0 0 -1.218-1.775z" fill="#fff" transform="translate(-3.01 -2)"/></g></svg>